<svg width="20" height="19" viewBox="0 0 20 19" fill="none" xmlns="http://www.w3.org/2000/svg">
<path fill-rule="evenodd" clip-rule="evenodd" d="M10 3.3646C9.67033 3.3646 9.38775 3.07003 9.38775 2.72636V0.83618C9.38775 0.492511 9.67033 0.197937 10 0.197937C10.3297 0.197937 10.6122 0.492511 10.6122 0.83618V2.72636C10.6122 3.07003 10.3297 3.3646 10 3.3646ZM6.40172 5.9521C7.31472 5.1021 8.60365 4.5521 10 4.5521C11.3963 4.5521 12.6853 5.0771 13.5983 5.9521C14.5113 6.8021 15.102 8.0021 15.102 9.3021C15.102 10.6021 14.5113 11.8021 13.5983 12.6521C12.6853 13.5021 11.3963 14.0521 10 14.0521C8.60365 14.0521 7.31472 13.5271 6.40172 12.6521C5.48872 11.8021 4.89796 10.6021 4.89796 9.3021C4.89796 8.0021 5.46187 6.8021 6.40172 5.9521ZM3.0593 3.71002L4.54178 5.14772C4.83827 5.40912 5.26954 5.40912 5.51213 5.14772C5.78167 4.88632 5.78167 4.46808 5.51213 4.20668L4.02965 2.76899C3.76011 2.50759 3.32884 2.50759 3.0593 2.76899C2.78976 3.03039 2.78976 3.44862 3.0593 3.71002ZM0.658124 8.90627H2.60718C2.96156 8.90627 3.26531 9.18031 3.26531 9.50002C3.26531 9.81973 2.96156 10.0938 2.60718 10.0938H0.658124C0.303749 10.0938 0 9.81973 0 9.50002C0 9.18031 0.303749 8.90627 0.658124 8.90627ZM5.51213 13.8523C5.24259 13.5909 4.81132 13.5909 4.54178 13.8523L3.0593 15.29C2.78976 15.5514 2.78976 15.9697 3.0593 16.2311C3.32884 16.4925 3.76011 16.4925 4.02965 16.2311L5.51213 14.7934C5.78167 14.532 5.78167 14.1137 5.51213 13.8523ZM10 15.6354C10.3297 15.6354 10.6122 15.93 10.6122 16.2737V18.1639C10.6122 18.5075 10.3297 18.8021 10 18.8021C9.67033 18.8021 9.38775 18.5075 9.38775 18.1639V16.2737C9.38775 15.93 9.67033 15.6354 10 15.6354ZM16.9407 15.29L15.4582 13.8523C15.1617 13.5909 14.7305 13.5909 14.4879 13.8523C14.2183 14.1137 14.2183 14.532 14.4879 14.7934L15.9704 16.2311C16.2399 16.4925 16.6712 16.4925 16.9407 16.2311C17.2102 15.9697 17.2102 15.5514 16.9407 15.29ZM16.7347 9.50002C16.7347 9.18031 17.0384 8.90627 17.3928 8.90627H19.3419C19.6963 8.90627 20 9.18031 20 9.50002C20 9.81973 19.6963 10.0938 19.3419 10.0938H17.3928C17.0384 10.0938 16.7347 9.81973 16.7347 9.50002ZM14.4879 5.14772C14.7574 5.40912 15.1887 5.40912 15.4582 5.14772L16.9407 3.71002C17.2102 3.44862 17.2102 3.03039 16.9407 2.76899C16.6712 2.50759 16.2399 2.50759 15.9704 2.76899L14.4879 4.20668C14.2183 4.46808 14.2183 4.88632 14.4879 5.14772Z" fill="white"/>
</svg>
